<?xml version="1.0" standalone="no"?><!DOCTYPE svg PUBLIC "-//W3C//DTD SVG 1.1//EN" "http://www.w3.org/Graphics/SVG/1.1/DTD/svg11.dtd"><svg t="1733136158186" class="icon" viewBox="0 0 1024 1024" version="1.1" xmlns="http://www.w3.org/2000/svg" p-id="2409" xmlns:xlink="http://www.w3.org/1999/xlink" width="16" height="16"><path d="M6.78272 136.537597l1017.21726 0 0 48.439039-1017.21726 0 0-48.439039Z" fill="#272636" p-id="2410"></path><path d="M352.666873 307.800314l48.439039 0 0 484.389111-48.439039 0 0-484.389111Z" fill="#272636" p-id="2411"></path><path d="M491.17183 307.800314l48.439039 0 0 484.389111-48.439039 0 0-484.389111Z" fill="#272636" p-id="2412"></path><path d="M629.676788 307.800314l48.439039 0 0 484.389111-48.439039 0 0-484.389111Z" fill="#272636" p-id="2413"></path><path d="M866.574063 184.976636 842.355184 927.121902c0 26.775039-21.69088 48.439039-48.439039 48.439039L261.087995 975.560941c-26.750719 0-48.439039-21.664-48.439039-48.439039l-48.439039-742.145266L115.770878 184.976636l48.439039 742.145266c0 53.501439 43.376639 96.878078 96.878078 96.878078l532.82815 0c53.498879 0 96.878078-43.376639 96.878078-96.878078l24.21888-742.145266L866.574063 184.976636z" fill="#272636" p-id="2414"></path><path d="M297.416954 136.537597 297.416954 104.844798c0-26.750719 21.68832-48.439039 48.439039-48.439039l339.071993 0c26.748159 0 48.439039 21.68832 48.439039 48.439039l0 31.692799 48.439039 0L781.806065 104.844798c0-53.501439-43.379199-96.878078-96.878078-96.878078L345.855993 7.96672c-53.501439 0-96.878078 43.376639-96.878078 96.878078l0 31.692799L297.416954 136.537597z" fill="#272636" p-id="2415"></path></svg>