<?xml version="1.0" standalone="no"?><!DOCTYPE svg PUBLIC "-//W3C//DTD SVG 1.1//EN" "http://www.w3.org/Graphics/SVG/1.1/DTD/svg11.dtd"><svg class="icon" width="100px" height="100.00px" viewBox="0 0 1024 1024" version="1.1" xmlns="http://www.w3.org/2000/svg"><path d="M267.636364 279.272727h605.090909c25.6 0 46.545455 20.945455 46.545454 46.545455v186.181818c0 25.6-20.945455 46.545455-46.545454 46.545455H267.636364c-25.6 0-46.545455-20.945455-46.545455-46.545455v-186.181818c0-25.6 20.945455-46.545455 46.545455-46.545455z" fill="#20DAB4" /><path d="M686.545455 651.636364H314.181818c-116.363636 0-209.454545-88.436364-209.454545-195.490909V195.490909C104.727273 88.436364 197.818182 0 314.181818 0h372.363637c116.363636 0 209.454545 88.436364 209.454545 195.490909v260.654546c0 107.054545-93.090909 195.490909-209.454545 195.490909zM314.181818 44.218182c-90.763636 0-162.909091 67.490909-162.909091 151.272727v260.654546c0 83.781818 72.145455 151.272727 162.909091 151.272727h372.363637c90.763636 0 162.909091-67.490909 162.90909-151.272727V195.490909c0-83.781818-72.145455-151.272727-162.90909-151.272727H314.181818z" fill="#106D5A" /><path d="M151.272727 186.181818h698.181818v46.545455H151.272727V186.181818z m0 276.945455h698.181818v46.545454H151.272727v-46.545454zM733.090909 279.272727h46.545455v139.636364h-46.545455v-139.636364zM826.181818 1024H174.545455c-39.563636 0-69.818182-30.254545-69.818182-69.818182V674.909091c0-39.563636 30.254545-69.818182 69.818182-69.818182h651.636363c39.563636 0 69.818182 30.254545 69.818182 69.818182v279.272727c0 39.563636-30.254545 69.818182-69.818182 69.818182zM174.545455 651.636364c-13.963636 0-23.272727 9.309091-23.272728 23.272727v279.272727c0 13.963636 9.309091 23.272727 23.272728 23.272727h651.636363c13.963636 0 23.272727-9.309091 23.272727-23.272727V674.909091c0-13.963636-9.309091-23.272727-23.272727-23.272727H174.545455z" fill="#106D5A" /><path d="M151.272727 861.090909h698.181818v46.545455H151.272727zM337.454545 628.363636h46.545455v116.363637h-46.545455v-116.363637z m-23.272727 93.090909h93.090909l23.272728 46.545455H290.909091l23.272727-46.545455zM640 628.363636h46.545455v116.363637h-46.545455v-116.363637z m-23.272727 93.090909h93.090909l23.272727 46.545455h-139.636364l23.272728-46.545455z" fill="#106D5A" /></svg>