<?xml version="1.0" standalone="no"?><!DOCTYPE svg PUBLIC "-//W3C//DTD SVG 1.1//EN" "http://www.w3.org/Graphics/SVG/1.1/DTD/svg11.dtd"><svg class="icon" width="32px" height="32.00px" viewBox="0 0 1024 1024" version="1.1" xmlns="http://www.w3.org/2000/svg"><path d="M875.5712 643.6352H192.512a25.4976 25.4976 0 0 1-25.4976-25.4976v-103.4752h734.0032v103.4752a25.42592 25.42592 0 0 1-25.4464 25.4976z" fill="#FFF87B" /><path d="M813.6192 514.6624h50.4832v128.9728h-50.4832z" fill="#FEF052" /><path d="M933.7344 175.0528H141.4656c-36.4544 0-65.9968 29.44-65.9968 65.7408v271.872c0 36.3008 29.5424 65.7408 65.9968 65.7408h5.7856V524.8h739.2256v53.6064h47.2576c36.4544 0 65.9968-29.44 65.9968-65.7408v-271.872c0-36.352-29.5424-65.7408-65.9968-65.7408z m-37.12 120.576c0 33.5872-27.3408 60.7744-61.0304 60.7744H212.6848c-33.6896 0-61.0304-27.2384-61.0304-60.7744V175.0528h744.96v120.576z" fill="#1FE5D7" /><path d="M897.0752 164.9664s26.8288 11.0592 26.8288 90.7264v256.3584s-0.3584 18.8416-37.4272 12.7488v37.4784s74.1888 14.2336 73.728-50.2272c-0.512-64.4608 0-292.0448 0-292.0448s-2.0992-45.9776-63.1296-55.04z" fill="#06CCBE" /><path d="M844.5952 653.8752H156.3136c-19.712 0-35.7376-16.0256-35.7376-35.7376v-103.4752c0-5.632 4.608-10.24 10.24-10.24h739.2256c5.632 0 10.24 4.608 10.24 10.24v103.4752c0 19.712-16.0256 35.7376-35.6864 35.7376zM141.056 524.9024v93.2352c0 8.3968 6.8608 15.2576 15.2576 15.2576h688.2304c8.3968 0 15.2576-6.8608 15.2576-15.2576v-93.2352H141.056z" fill="#010101" /><path d="M829.0816 346.368H243.0976c-34.0992 0-61.7472-27.648-61.7472-61.7472V164.9664H890.88v119.6544c0 34.0992-27.648 61.7472-61.7984 61.7472z" fill="#FFF87B" /><path d="M809.0112 164.9664V300.032s2.1504 45.6192-61.5936 46.336c45.1072 0 120.576 1.6896 120.576-66.9184s1.9968-114.4832 1.9968-114.4832h-60.9792z" fill="#FEF052" /><path d="M808.2944 356.608H207.104c-39.68 0-71.9872-32.3072-71.9872-71.9872V164.9664c0-5.632 4.608-10.24 10.24-10.24h724.6848c5.632 0 10.24 4.608 10.24 10.24v119.6544c0 39.68-32.3072 71.9872-71.9872 71.9872zM155.5968 175.2064v109.4144c0 28.416 23.0912 51.5072 51.5072 51.5072h601.1904c28.416 0 51.5072-23.0912 51.5072-51.5072V175.2064H155.5968z" fill="#010101" /><path d="M897.0752 578.5088h-27.0336c-5.632 0-10.24-4.608-10.24-10.24v-43.3664H141.056v43.3664c0 5.632-4.608 10.24-10.24 10.24h-26.0608c-42.0352 0-76.2368-34.0992-76.2368-75.9808V353.9968c0-5.632 4.608-10.24 10.24-10.24s10.24 4.608 10.24 10.24v148.5312c0 30.6176 25.0368 55.5008 55.7568 55.5008h15.8208v-43.3664c0-5.632 4.608-10.24 10.24-10.24h739.2256c5.632 0 10.24 4.608 10.24 10.24v43.3664h16.7936c30.72 0 55.7568-24.8832 55.7568-55.5008v-271.872c0-30.6176-25.0368-55.5008-55.7568-55.5008h-16.7936v110.3872c0 39.168-32 71.0144-71.2704 71.0144H206.3872c-39.3216 0-71.2704-31.8464-71.2704-71.0144V175.2064h-30.3104c-30.72 0-55.7568 24.8832-55.7568 55.5008 0 5.632-4.608 10.24-10.24 10.24s-10.24-4.608-10.24-10.24c0-41.8816 34.2016-75.9808 76.2368-75.9808h792.2688c42.0352 0 76.2368 34.0992 76.2368 75.9808v271.872c0 41.8816-34.2016 75.9296-76.2368 75.9296zM155.5968 175.2064v110.3872c0 27.8528 22.784 50.5344 50.7904 50.5344h602.624c28.0064 0 50.7904-22.6816 50.7904-50.5344V175.2064H155.5968zM38.7584 317.6448c-5.632 0-10.24-4.608-10.24-10.24v-37.4784c0-5.632 4.608-10.24 10.24-10.24s10.24 4.608 10.24 10.24v37.4784c0 5.6832-4.5568 10.24-10.24 10.24z" fill="#010101" /><path d="M285.6448 888.576c-12.544 0-24.6784-6.6048-31.0784-18.3296-9.3696-17.1008-3.072-38.5024 14.08-47.872 1.536-0.8192 2.7136-3.3792 3.0208-6.3488 0.256-2.7648-0.0512-9.8304-8.0384-16.4864-29.2864-22.6304-37.3248-47.7696-38.912-64.9216-0.4608-5.3248-0.4096-10.4448 0.0512-15.3088 2.7136-27.7504 36.1472-40.4992 56.9344-21.8112l3.7888 3.3792c7.3216 6.6048 10.3424 16.2816 9.728 26.112-0.0512 0.512 0 0.9728 0.0512 1.4336 0.6656 6.0928 7.7824 12.3392 11.9808 15.5648l0.7168 0.5632c24.1152 19.5072 36.864 48.5888 34.2016 77.824-2.4064 26.5216-17.2032 49.664-39.5264 61.8496-5.4272 2.9696-11.264 4.352-16.9984 4.352z" fill="#91F2E2" /><path d="M264.448 714.752s-19.6096 13.056-2.6112 33.9968c16.9984 20.9408 45.7728 53.6064 34.304 81.3568-3.2768 8.4992-18.3808 29.2352-40.704 41.5744 2.816 3.9424 8.96 9.8304 8.96 9.8304s41.8816-9.2672 47.4624-21.3504c5.5808-12.0832 8.448-56.7296 4.6592-67.7376-3.7888-11.008-52.0704-77.6704-52.0704-77.6704z" fill="#77E5D8" /><path d="M443.5968 888.576c-12.544 0-24.6784-6.6048-31.0784-18.3296-9.3696-17.1008-3.072-38.5024 14.08-47.872 1.536-0.8192 2.7136-3.3792 3.0208-6.3488 0.256-2.7648-0.0512-9.8304-8.0384-16.4864-29.2864-22.6304-37.3248-47.7696-38.912-64.9216-0.4608-5.3248-0.4096-10.4448 0.0512-15.3088 2.7136-27.7504 36.1472-40.4992 56.9344-21.8112l3.7888 3.3792c7.3216 6.6048 10.3424 16.2816 9.728 26.112-0.0512 0.512 0 0.9728 0.0512 1.4336 0.6656 6.0928 7.7824 12.3392 11.9808 15.5648l0.7168 0.5632c24.1152 19.5072 36.864 48.5888 34.2016 77.824-2.4064 26.5216-17.2032 49.664-39.5264 61.8496-5.4272 2.9696-11.264 4.352-16.9984 4.352z" fill="#91F2E2" /><path d="M422.3488 714.752s-19.6096 13.056-2.6112 33.9968c16.9984 20.9408 45.7728 53.6064 34.304 81.3568-3.2768 8.4992-18.3808 29.2352-40.704 41.5744 2.816 3.9424 8.96 9.8304 8.96 9.8304s41.8816-9.2672 47.4624-21.3504 8.448-56.7296 4.6592-67.7376c-3.7888-11.008-52.0704-77.6704-52.0704-77.6704z" fill="#77E5D8" /><path d="M598.8864 888.576c-12.544 0-24.6784-6.6048-31.0784-18.3296-9.3696-17.1008-3.072-38.5024 14.08-47.872 1.536-0.8192 2.7136-3.3792 3.0208-6.3488 0.256-2.7648-0.0512-9.8304-8.0384-16.4864-29.2864-22.6304-37.3248-47.7696-38.912-64.9216-0.4608-5.3248-0.4096-10.4448 0.0512-15.3088 2.7136-27.7504 36.1472-40.4992 56.9344-21.8112l3.7888 3.3792c7.3216 6.6048 10.3424 16.2816 9.728 26.112-0.0512 0.512 0 0.9728 0.0512 1.4336 0.6656 6.0928 7.7824 12.3392 11.9808 15.5648l0.7168 0.5632c24.1152 19.5072 36.864 48.5888 34.2016 77.824-2.4064 26.5216-17.2032 49.664-39.5264 61.8496-5.4272 2.9696-11.2128 4.352-16.9984 4.352z" fill="#91F2E2" /><path d="M577.6896 714.752s-19.6096 13.056-2.6112 33.9968c16.9984 20.9408 45.7728 53.6064 34.304 81.3568-3.2768 8.4992-18.3808 29.2352-40.704 41.5744 2.816 3.9424 8.96 9.8304 8.96 9.8304s41.8816-9.2672 47.4624-21.3504 8.448-56.7296 4.6592-67.7376c-3.7888-11.008-52.0704-77.6704-52.0704-77.6704z" fill="#77E5D8" /><path d="M756.736 888.576c-12.544 0-24.6784-6.6048-31.0784-18.3296-9.3696-17.1008-3.072-38.5024 14.08-47.872 1.536-0.8192 2.7136-3.3792 3.0208-6.3488 0.256-2.7648-0.0512-9.8304-8.0384-16.4864-29.2864-22.6304-37.3248-47.7696-38.912-64.9216-0.4608-5.3248-0.4096-10.4448 0.0512-15.3088 2.7136-27.7504 36.1472-40.4992 56.9344-21.8112l3.7888 3.3792c7.3216 6.6048 10.3424 16.2816 9.728 26.112-0.0512 0.512 0 0.9728 0.0512 1.4336 0.6656 6.0928 7.7824 12.3392 11.9808 15.5648l0.7168 0.5632c24.1152 19.5072 36.864 48.5888 34.2016 77.824-2.4064 26.5216-17.2032 49.664-39.5264 61.8496-5.4272 2.9696-11.2128 4.352-16.9984 4.352z" fill="#91F2E2" /><path d="M735.5392 714.752s-19.6096 13.056-2.6112 33.9968c16.9984 20.9408 45.7728 53.6064 34.304 81.3568-3.2768 8.4992-18.3808 29.2352-40.704 41.5744 2.816 3.9424 8.96 9.8304 8.96 9.8304s41.8816-9.2672 47.4624-21.3504c5.5808-12.0832 8.448-56.7296 4.6592-67.7376-3.7888-11.008-52.0704-77.6704-52.0704-77.6704z" fill="#77E5D8" /><path d="M262.6048 898.816c-16.6912 0-32.0512-9.0624-40.0896-23.6544a45.09184 45.09184 0 0 1-3.7888-34.6112 45.09696 45.09696 0 0 1 19.6608-25.856c0-1.2288-0.512-4.0448-4.4032-7.2192-32-24.7296-40.8064-52.736-42.5472-71.8848-0.512-5.6832-0.512-11.4688 0.0512-17.2032 1.6384-16.64 12.3392-30.72 28.0064-36.8128 15.8208-6.144 33.4336-2.9184 45.9776 8.3456l3.7888 3.4304c9.1648 8.2432 13.9264 20.736 13.1072 34.3552 0.1536 0.3584 1.9968 3.6352 7.9872 8.2432l0.8192 0.6656c26.88 21.7088 41.0624 54.1696 38.0928 86.8352-2.7136 29.952-19.5072 56.064-44.8512 69.888a46.55104 46.55104 0 0 1-21.8112 5.4784z m-26.7264-199.8848c-2.9696 0-5.9904 0.5632-8.96 1.6896-8.5504 3.328-14.1312 10.7008-15.0528 19.712-0.4096 4.4544-0.4608 8.96-0.0512 13.3632 1.3824 15.104 8.5504 37.376 34.9696 57.7536 12.032 9.9328 12.3904 21.1456 11.9808 25.4976-0.6144 6.5024-3.6864 11.8784-8.2944 14.3872a25.10336 25.10336 0 0 0-12.0832 14.9504c-1.8944 6.4-1.1264 13.1584 2.0992 18.9952a25.22624 25.22624 0 0 0 22.1184 13.056c4.1984 0 8.3456-1.0752 12.0832-3.072 19.3536-10.5472 32.1536-30.6176 34.2528-53.76 2.3552-25.856-9.0112-51.6096-30.464-68.9664l-0.6144-0.512c-9.6256-7.3728-14.9504-14.9504-15.8208-22.4256-0.1024-1.024-0.1536-2.0992-0.0512-3.1744 0.256-4.3008-0.2048-12.3392-6.4-17.8688l-3.7888-3.4304c-4.5568-4.096-10.1376-6.1952-15.9232-6.1952z m4.8128 114.432zM420.864 898.816c-16.6912 0-32.0512-9.0624-40.0896-23.6544a45.09184 45.09184 0 0 1-3.7888-34.6112 45.09696 45.09696 0 0 1 19.6608-25.856c0-1.2288-0.512-4.0448-4.4032-7.2192-32-24.7296-40.8064-52.736-42.5472-71.8848-0.512-5.6832-0.512-11.4688 0.0512-17.2032 1.6384-16.64 12.3392-30.72 28.0064-36.8128 15.7696-6.144 33.3824-2.9184 45.9776 8.3456l3.7888 3.4304c9.1648 8.2432 13.9264 20.736 13.1072 34.3552 0.1536 0.3584 1.9968 3.6352 7.9872 8.192l0.8192 0.6656c26.88 21.7088 41.0624 54.1696 38.0928 86.8352-2.7136 29.952-19.5072 56.064-44.8512 69.888-6.6048 3.584-14.1824 5.5296-21.8112 5.5296z m-26.7776-199.8848c-2.9696 0-5.9904 0.5632-8.9088 1.6896-8.5504 3.328-14.1824 10.7008-15.0528 19.712-0.4096 4.4544-0.4608 8.96-0.0512 13.3632 1.3824 15.104 8.5504 37.376 34.9696 57.7536 12.032 9.9328 12.3904 21.1456 11.9808 25.4976-0.6144 6.5024-3.6864 11.8784-8.2944 14.3872a24.92416 24.92416 0 0 0-12.0832 14.9504c-1.8944 6.4-1.1264 13.1584 2.0992 18.9952a25.22624 25.22624 0 0 0 22.1184 13.056c4.1984 0 8.3456-1.0752 12.0832-3.072 19.3536-10.5472 32.1536-30.6176 34.2528-53.76 2.3552-25.856-9.0112-51.6096-30.464-68.9664l-0.6144-0.512c-9.6256-7.3728-14.9504-14.9504-15.8208-22.4256-0.1024-1.024-0.1536-2.0992-0.0512-3.1744 0.256-4.3008-0.2048-12.3392-6.4-17.8688l-3.7888-3.4304c-4.5568-4.096-10.1888-6.1952-15.9744-6.1952zM579.1232 898.816c-16.6912 0-32.0512-9.0624-40.0896-23.6544a45.09184 45.09184 0 0 1-3.7888-34.6112 45.09696 45.09696 0 0 1 19.6608-25.856c0-1.2288-0.512-4.0448-4.4032-7.2192-31.9488-24.6784-40.8064-52.736-42.5472-71.8848-0.512-5.6832-0.512-11.4688 0.0512-17.2032 1.6384-16.64 12.3392-30.72 28.0064-36.8128 15.7696-6.144 33.3824-2.9184 45.9776 8.3456l3.7888 3.4304c9.1648 8.2432 13.9264 20.736 13.1072 34.3552 0.1536 0.3584 1.9968 3.6352 7.9872 8.192l0.8704 0.7168c26.8288 21.7088 41.0112 54.1184 38.0416 86.784-2.7136 29.952-19.5072 56.064-44.8512 69.888-6.656 3.584-14.1824 5.5296-21.8112 5.5296z m-26.7776-199.8848c-2.9696 0-5.9904 0.5632-8.96 1.6896-8.5504 3.328-14.1312 10.7008-15.0528 19.712-0.4096 4.4544-0.4608 8.96-0.0512 13.3632 1.3824 15.104 8.5504 37.376 34.9696 57.7536 12.032 9.9328 12.3904 21.1456 11.9808 25.4976-0.6144 6.5024-3.7376 11.8784-8.2944 14.3872a25.10336 25.10336 0 0 0-12.0832 14.9504c-1.8944 6.4-1.1264 13.1584 2.0992 18.9952a25.22624 25.22624 0 0 0 22.1184 13.056c4.2496 0 8.3456-1.024 12.0832-3.072 19.3536-10.5472 32.1536-30.6176 34.2528-53.76 2.3552-25.856-9.0112-51.6096-30.464-68.9664l-0.6656-0.512c-9.5744-7.3216-14.9504-14.8992-15.7696-22.4256-0.1024-1.024-0.1536-2.0992-0.0512-3.1744 0.256-4.3008-0.2048-12.3392-6.3488-17.8688l-3.7888-3.4304c-4.608-4.096-10.1888-6.1952-15.9744-6.1952z m4.8128 114.432zM737.3312 898.816c-16.6912 0-32.0512-9.0624-40.0896-23.6544a45.09184 45.09184 0 0 1-3.7888-34.6112 45.09696 45.09696 0 0 1 19.6608-25.856c0-1.2288-0.512-4.0448-4.4032-7.2192-31.9488-24.6784-40.8064-52.736-42.5472-71.8848-0.512-5.6832-0.512-11.52 0.0512-17.2544 1.6384-16.64 12.3392-30.72 28.0064-36.8128 15.7696-6.144 33.3824-2.9184 45.9776 8.3456l3.7888 3.4304c9.1648 8.2432 13.9264 20.736 13.1072 34.3552 0.1536 0.3584 1.9968 3.6352 7.9872 8.192l0.8704 0.7168c26.8288 21.6576 41.0112 54.1184 38.0416 86.784-2.7136 29.952-19.5072 56.064-44.8512 69.888a45.45536 45.45536 0 0 1-21.8112 5.5808z m-26.7264-199.8848c-2.9696 0-5.9904 0.5632-8.96 1.6896-8.5504 3.328-14.1312 10.7008-15.0528 19.712-0.4608 4.4544-0.4608 8.96-0.0512 13.3632 1.3824 15.104 8.5504 37.376 34.9696 57.7536 12.032 9.9328 12.3904 21.1456 11.9808 25.4976-0.6144 6.5024-3.7376 11.8784-8.2944 14.3872a25.10336 25.10336 0 0 0-12.0832 14.9504c-1.8944 6.4-1.1264 13.1584 2.0992 18.9952a25.22624 25.22624 0 0 0 22.1184 13.056c4.2496 0 8.3456-1.024 12.0832-3.072 19.3536-10.5472 32.1536-30.6176 34.2528-53.76 2.3552-25.856-9.0112-51.6096-30.464-68.9664l-0.6656-0.5632c-9.5744-7.3216-14.9504-14.8992-15.7696-22.4256-0.1024-1.024-0.1536-2.0992-0.0512-3.1744 0.256-4.3008-0.2048-12.3392-6.4-17.8688l-3.7888-3.4304c-4.5568-4.0448-10.1376-6.144-15.9232-6.144z m4.8128 114.432z" fill="#010101" /><path d="M627.0464 425.472a26.7776 26.6752 0 1 0 53.5552 0 26.7776 26.6752 0 1 0-53.5552 0Z" fill="#FEF052" /><path d="M716.2368 425.472a26.7776 26.6752 0 1 0 53.5552 0 26.7776 26.6752 0 1 0-53.5552 0Z" fill="#FEF052" /><path d="M814.336 425.472a32.4608 32.3072 0 1 0 64.9216 0 32.4608 32.3072 0 1 0-64.9216 0Z" fill="#FEF052" /><path d="M846.7968 473.344c-26.4704 0-48.0256-21.4528-48.0256-47.872s21.5552-47.872 48.0256-47.872 48.0256 21.4528 48.0256 47.872-21.5552 47.872-48.0256 47.872z m0-75.264c-15.2064 0-27.5456 12.288-27.5456 27.392s12.3392 27.392 27.5456 27.392 27.5456-12.288 27.5456-27.392-12.3392-27.392-27.5456-27.392zM743.0144 462.3872c-20.4288 0-37.0176-16.5376-37.0176-36.9152s16.5888-36.9152 37.0176-36.9152 37.0176 16.5376 37.0176 36.9152-16.64 36.9152-37.0176 36.9152z m0-53.3504c-9.1136 0-16.5376 7.3728-16.5376 16.4352s7.424 16.4352 16.5376 16.4352 16.5376-7.3728 16.5376-16.4352-7.424-16.4352-16.5376-16.4352zM653.824 462.3872c-20.4288 0-37.0176-16.5376-37.0176-36.9152s16.5888-36.9152 37.0176-36.9152 37.0176 16.5376 37.0176 36.9152-16.64 36.9152-37.0176 36.9152z m0-53.3504c-9.1136 0-16.5376 7.3728-16.5376 16.4352s7.424 16.4352 16.5376 16.4352 16.5376-7.3728 16.5376-16.4352-7.424-16.4352-16.5376-16.4352z" fill="#010101" /><path d="M578.4064 224.9728h-42.2912c-5.632 0-10.24-4.608-10.24-10.24s4.608-10.24 10.24-10.24h42.2912a10.24 10.24 0 1 1 0 20.48zM498.0736 224.9728h-41.1648c-5.632 0-10.24-4.608-10.24-10.24s4.608-10.24 10.24-10.24h41.1648a10.24 10.24 0 1 1 0 20.48zM422.2464 224.9728H210.8928c-5.632 0-10.24-4.608-10.24-10.24s4.608-10.24 10.24-10.24h211.3536a10.24 10.24 0 1 1 0 20.48zM498.0736 572.4672h-41.1648c-5.632 0-10.24-4.608-10.24-10.24s4.608-10.24 10.24-10.24h41.1648a10.24 10.24 0 1 1 0 20.48zM422.2464 572.4672H210.8928c-5.632 0-10.24-4.608-10.24-10.24s4.608-10.24 10.24-10.24h211.3536a10.24 10.24 0 1 1 0 20.48zM130.816 463.0016c-5.632 0-10.24-4.608-10.24-10.24V381.7984c0-5.632 4.608-10.24 10.24-10.24s10.24 4.608 10.24 10.24v70.912c0 5.6832-4.5568 10.2912-10.24 10.2912z" fill="#FFFFFF" /></svg>