<?xml version="1.0" standalone="no"?><!DOCTYPE svg PUBLIC "-//W3C//DTD SVG 1.1//EN" "http://www.w3.org/Graphics/SVG/1.1/DTD/svg11.dtd"><svg t="1733927127363" class="icon" viewBox="0 0 1228 1024" version="1.1" xmlns="http://www.w3.org/2000/svg" p-id="6220" xmlns:xlink="http://www.w3.org/1999/xlink" width="38.375" height="32"><path d="M1046.732277 0.000512A181.555109 181.555109 0 0 1 1228.799386 181.094821v633.804484a181.555109 181.555109 0 0 1-182.067109 181.043109H182.067109A181.555109 181.555109 0 0 1 0 814.899305V181.043621A181.555109 181.555109 0 0 1 182.067109 0.000512h864.665168z m-510.566145 305.561447c-39.93598 0-72.499164 32.460784-72.499164 72.191964v240.48628c0 12.851194 3.583998 25.855987 9.932795 36.761581 21.350389 34.662383 66.150367 45.619177 100.96635 25.497588l196.300702-118.835141c10.239995-6.399997 18.585591-14.591993 24.166387-24.063988a72.806364 72.806364 0 0 0-22.783988-100.45435l-197.631901-120.268739a68.659166 68.659166 0 0 0-38.399981-11.263995z" fill="#4285F6" p-id="6221"></path></svg>