<?xml version="1.0" standalone="no"?><!DOCTYPE svg PUBLIC "-//W3C//DTD SVG 1.1//EN" "http://www.w3.org/Graphics/SVG/1.1/DTD/svg11.dtd"><svg t="1731589858319" class="icon" viewBox="0 0 1024 1024" version="1.1" xmlns="http://www.w3.org/2000/svg" p-id="5363" width="32" height="32" xmlns:xlink="http://www.w3.org/1999/xlink"><path d="M763.52 968.704H269.056c-112.256 0-203.264-91.008-203.264-203.264V271.104C65.92 158.848 156.928 67.84 269.056 67.84h494.464c112.256 0 203.264 91.008 203.264 203.264v494.464c0 112.256-91.008 203.136-203.264 203.136z" fill="#FFFFFF" p-id="5364"></path><path d="M781.056 400.256v-118.016c0-3.328-2.688-6.144-6.016-6.144h-57.984c-3.328 0-6.016 2.688-6.016 6.144v61.44L527.488 195.328c-7.296-5.888-17.536-5.888-24.832 0L182.016 453.504c-3.712 2.944-1.664 8.96 3.072 9.088l60.416 0.256v345.856c0 10.368 8.32 18.816 18.56 18.816h504.576c10.24 0 18.56-8.448 18.56-18.816V465.152l60.288 0.256c4.736 0 6.784-6.016 3.072-9.088l-69.504-56.064z" fill="#FF8502" p-id="5365"></path><path d="M509.44 254.848L301.056 418.432a11.2896 11.2896 0 0 0-4.224 8.832v334.208c0 6.144 4.992 11.136 11.136 11.136h416.896c6.144 0 11.136-4.992 11.136-11.136V427.136c0-3.456-1.536-6.656-4.224-8.832L523.264 254.848c-4.096-3.2-9.728-3.2-13.824 0z" fill="#FCAC2E" p-id="5366"></path><path d="M510.976 327.168l-160.128 125.696c-2.048 1.664-3.328 4.096-3.328 6.784v256.768c0 4.736 3.84 8.576 8.576 8.576h320.384c4.736 0 8.576-3.84 8.576-8.576V459.648c0-2.688-1.152-5.12-3.328-6.784l-160.128-125.696c-3.072-2.432-7.424-2.432-10.624 0z" fill="#FFC047" p-id="5367"></path><path d="M512.768 407.296l-107.52 84.352c-1.408 1.152-2.176 2.816-2.176 4.48v172.416c0 3.2 2.56 5.76 5.76 5.76h215.168c3.2 0 5.76-2.56 5.76-5.76V496.256c0-1.792-0.768-3.456-2.176-4.48l-107.52-84.352c-2.304-1.792-5.248-1.792-7.296-0.128z" fill="#FFD268" p-id="5368"></path><path d="M514.56 480.128l-54.656 42.88c-0.768 0.512-1.152 1.408-1.152 2.304v87.68c0 1.664 1.28 2.944 2.944 2.944h109.312c1.664 0 2.944-1.28 2.944-2.944v-87.68c0-0.896-0.384-1.792-1.152-2.304l-54.656-42.88c-1.024-0.768-2.56-0.768-3.584 0z" fill="#FAE580" p-id="5369"></path></svg>