<?xml version="1.0" standalone="no"?><!DOCTYPE svg PUBLIC "-//W3C//DTD SVG 1.1//EN" "http://www.w3.org/Graphics/SVG/1.1/DTD/svg11.dtd"><svg t="1733494789721" class="icon" viewBox="0 0 1024 1024" version="1.1" xmlns="http://www.w3.org/2000/svg" p-id="5340" width="32" height="32" xmlns:xlink="http://www.w3.org/1999/xlink"><path d="M376.654661 143.768414C376.654661 77.812006 430.126578 24.344146 496.074871 24.344146h27.86999c65.944235 0 119.424267 53.46786 119.424267 119.424268V587.789414c57.801118 41.129435 95.54266 108.619524 95.54266 184.962766 0 125.311493-101.596237 226.903673-226.911788 226.903674C386.680392 999.659911 285.088212 898.063674 285.088212 772.756238c0-74.594522 35.996878-140.761912 91.558334-182.130731l0.008115-446.857093z" fill="#D4F5FF" p-id="5341"></path><path d="M448.737678 375.800587h-0.101434V640.328139c-50.863036 23.581363-86.149877 75.061118-86.149876 134.82194 0 82.051945 66.512265 148.556096 148.556096 148.556095 82.06006 0 148.560153-66.516323 148.560153-148.556095-0.012172-59.760822-35.311184-111.240577-86.162049-134.82194l-0.097377-264.527552H448.737678z" fill="#FFA1A1" p-id="5342"></path><path d="M403.705065 777.000234c0-59.760822 35.294955-111.236519 86.157991-134.82194V378.592049v-0.941307h-32.458862v264.523495c-50.863036 23.581363-86.157991 75.061118-86.157991 134.821939 0 82.06006 66.52038 148.556096 148.564211 148.556096 5.493662 0 10.906178-0.320531 16.229431-0.908848-74.415998-8.074142-132.33478-71.08085-132.33478-147.64319z" fill="#FFD4D4" opacity=".42" p-id="5343"></path><path d="M511.042464 939.935605c-90.868584 0-164.785527-73.925058-164.785527-164.785526 0-60.409999 33.485373-116.145922 86.149877-144.811155V375.800587a16.229431 16.229431 0 0 1 16.22943-16.229431h124.698833a16.229431 16.229431 0 0 1 16.229431 16.225374l0.093319 254.538337c52.660446 28.661175 86.153934 84.405213 86.166106 144.807097 0.008115 90.868584-73.916943 164.793641-164.781469 164.793641zM464.865675 392.030018v248.298121a16.229431 16.229431 0 0 1-9.39684 14.724151c-46.627155 21.617602-76.753036 68.751927-76.753036 120.097789 0 72.963464 59.363201 132.326665 132.326665 132.326664 72.967521 0 132.330722-59.363201 132.330722-132.326664-0.012172-51.33369-30.142111-98.476129-76.761151-120.097789a16.229431 16.229431 0 0 1-9.400898-14.716036l-0.089262-248.306236H464.865675z" fill="#6E6E96" p-id="5344"></path><path d="M567.350474 656.55757l-0.097377-264.527552H442.54615v9.129055h98.800718l0.085205 241.32758c46.404 21.516168 78.595076 68.476026 78.607249 122.994742 0 74.837963-60.677785 135.523863-135.531978 135.523863-57.500874 0-106.590845-35.818354-126.293374-86.348687 11.173963 70.987531 72.610474 125.279034 146.7384 125.279034 82.06006 0 148.560153-66.516323 148.560153-148.556095-0.008115-59.760822-35.311184-111.240577-86.162049-134.82194z" fill="#6E6E96" opacity=".15" p-id="5345"></path><path d="M512 1015.885285c-64.942068 0.004057-126.001244-25.281396-171.926476-71.210686C294.152349 898.757482 268.858781 837.698305 268.858781 772.756238c0-73.714075 34.077748-144.15792 91.558334-190.103439V143.768414C360.42523 68.971024 421.277481 8.114715 496.074871 8.114715h27.86999c74.801447 0 135.653698 60.856309 135.653698 135.653699v435.829194c59.979919 45.91306 95.54266 117.488908 95.54266 193.150515 0 134.067271-109.073948 243.137162-243.141219 243.137162zM496.074871 40.573577c-56.900385 0-103.198894 46.294452-103.198894 103.194837v446.857093a16.257832 16.257832 0 0 1-6.532346 13.020061C332.307741 643.870212 301.317643 705.509591 301.317643 772.756238c0 56.267437 21.909732 109.171324 61.708353 148.965888 39.794565 39.798622 92.698452 61.704296 148.974004 61.704297 116.170266 0 210.682357-94.508033 210.682357-210.674243 0-68.013488-33.168899-132.209001-88.722241-171.739838a16.225374 16.225374 0 0 1-6.820418-13.222928V143.768414C627.139698 86.868029 580.849303 40.573577 523.944861 40.573577h-27.86999z" fill="#6E6E96" p-id="5346"></path><path d="M639.307713 581.703377V137.682377C639.307713 71.72597 585.831739 18.25811 519.887503 18.25811h-27.86999c-48.043173 0-89.436336 28.393389-108.388254 69.29967 20.371993-26.867823 52.274997-44.184626 88.154211-44.184626h26.003606c61.521715 0 111.415043 50.871151 111.415043 113.614131v422.427742c53.926342 39.137273 89.136092 103.344959 89.136092 175.967605 0 119.221399-94.775819 215.86766-211.696697 215.86766-81.504202 0.004057-152.20366-46.996375-187.583819-115.837563 34.560573 81.208015 115.062608 138.157088 208.884947 138.153031 125.315551 0 226.911788-101.59218 226.911788-226.903674-0.004057-76.335128-37.741542-143.829274-95.546717-184.958709z" fill="#6E6E96" opacity=".15" p-id="5347"></path></svg>